<?xml version="1.0" encoding="UTF-8" standalone="no"?>
<!-- Created with Inkscape (http://www.inkscape.org/) -->
<svg
   xmlns:svg="http://www.w3.org/2000/svg"
   xmlns="http://www.w3.org/2000/svg"
   version="1.0"
   width="455"
   height="455"
   viewBox="-9.302 -9.782 455 455"
   id="Layer_1"
   xml:space="preserve"><defs
   id="defs60" />
<path
   d="M 19.581,217.723 C 19.578,327.416 108.502,416.339 218.195,416.338 C 327.886,416.338 416.815,327.417 416.815,217.723 C 416.812,108.03 327.885,19.098 218.194,19.098 C 108.501,19.099 19.58,108.03 19.581,217.723 z "
   style="fill:white;stroke:black;stroke-width:6.91480017"
   id="path3" />
<path
   d="M 344.022,91.413 C 318.213,65.607 286.474,49.358 253.196,42.644 L 253.196,74.218 L 252.196,74.218 L 183.197,74.218 L 182.196,74.218 L 182.196,42.647 C 148.916,49.364 117.179,65.615 91.376,91.421 C 32.347,150.449 23.283,240.5 64.146,309.077 L 126.331,309.077 L 126.331,371.282 C 182.447,404.727 252.939,404.728 309.056,371.284 L 309.056,309.081 L 371.244,309.081 C 412.112,240.499 403.053,150.442 344.022,91.413 z "
   style="fill:none;stroke:black;stroke-width:6.91480017"
   id="path5" />
<rect
   width="62.341999"
   height="110.828"
   x="186.466"
   y="122.695"
   style="fill:none;stroke:black;stroke-width:6.91480017"
   id="rect7" />
<g
   id="g9">
	<circle
   cx="126.093"
   cy="141.746"
   r="19.554001"
   style="fill:none;stroke:black;stroke-width:6.91480017"
   id="circle11" />
	<circle
   cx="102.949"
   cy="233.33099"
   r="19.554001"
   style="fill:none;stroke:black;stroke-width:6.91480017"
   id="circle13" />
	<circle
   cx="332.33099"
   cy="233.33099"
   r="19.554001"
   style="fill:none;stroke:black;stroke-width:6.91480017"
   id="circle15" />
	<circle
   cx="170.961"
   cy="324.452"
   r="19.554001"
   style="fill:none;stroke:black;stroke-width:6.91480017"
   id="circle17" />
	<circle
   cx="309.18301"
   cy="141.745"
   r="19.554001"
   style="fill:none;stroke:black;stroke-width:6.91480017"
   id="circle19" />
	<circle
   cx="264.315"
   cy="324.45099"
   r="19.554001"
   style="fill:none;stroke:black;stroke-width:6.91480017"
   id="circle21" />
</g>
<g
   id="g23">
	<rect
   width="42"
   height="42"
   x="144.198"
   y="102.218"
   style="fill:none"
   id="rect25" />
	<path
   d="M 172.854,108.025 C 171.99,107.977 170.886,108.073 169.686,108.265 C 163.014,109.321 159.558,114.169 158.838,119.353 L 158.934,119.353 C 160.422,117.337 163.062,115.705 166.518,115.705 C 172.038,115.705 175.926,119.737 175.926,125.785 C 175.926,131.545 172.038,136.825 165.51,136.825 C 158.886,136.825 154.518,131.641 154.518,123.529 C 154.518,117.385 156.678,112.537 159.798,109.417 C 162.39,106.873 165.846,105.289 169.782,104.809 C 171.03,104.617 172.086,104.569 172.854,104.569 L 172.854,108.025 L 172.854,108.025 z M 165.606,133.561 C 169.206,133.561 171.654,130.537 171.654,126.073 C 171.654,121.609 169.11,118.921 165.222,118.921 C 162.678,118.921 160.278,120.457 159.126,122.761 C 158.886,123.241 158.694,123.817 158.694,124.585 C 158.742,129.721 161.142,133.561 165.558,133.561 L 165.606,133.561 z "
   id="path27" />
</g>
<g
   id="g29">
	<rect
   width="42"
   height="42"
   x="249.19701"
   y="102.218"
   style="fill:none"
   id="rect31" />
	<path
   d="M 278.669,108.649 L 266.766,108.649 L 265.566,116.569 C 266.286,116.473 266.958,116.377 268.11,116.377 C 270.558,116.377 272.91,116.905 274.83,118.057 C 277.278,119.401 279.294,122.137 279.294,126.169 C 279.294,132.265 274.446,136.825 267.679,136.825 C 264.271,136.825 261.439,135.865 259.903,134.905 L 260.959,131.689 C 262.255,132.457 264.799,133.417 267.68,133.417 C 271.616,133.417 275.072,130.825 275.024,126.601 C 275.024,122.473 272.288,119.641 266.096,119.641 C 264.272,119.641 262.879,119.785 261.728,119.977 L 263.744,105.097 L 278.672,105.097 L 278.672,108.649 L 278.669,108.649 z "
   id="path33" />
</g>
<g
   id="g35">
	<rect
   width="42"
   height="42"
   x="149.198"
   y="260.21799"
   style="fill:none"
   id="rect37" />
	<path
   d="M 160.046,294.297 L 160.046,291.705 L 163.358,288.489 C 171.326,280.904 174.974,276.873 174.974,272.169 C 174.974,269.001 173.486,266.072 168.83,266.072 C 165.998,266.072 163.646,267.512 162.206,268.713 L 160.862,265.736 C 162.974,263.961 166.094,262.568 169.694,262.568 C 176.366,262.568 179.198,267.176 179.198,271.64 C 179.198,277.4 175.022,282.056 168.446,288.392 L 165.998,290.697 L 165.998,290.793 L 179.966,290.793 L 179.966,294.297 L 160.046,294.297 L 160.046,294.297 z "
   id="path39" />
</g>
<g
   id="g41">
	<rect
   width="42"
   height="42"
   x="244.19701"
   y="260.21799"
   style="fill:none"
   id="rect43" />
	<path
   d="M 264.213,267.032 L 264.117,267.032 L 258.693,269.961 L 257.877,266.745 L 264.693,263.097 L 268.293,263.097 L 268.293,294.297 L 264.213,294.297 L 264.213,267.032 L 264.213,267.032 z "
   id="path45" />
</g>
<g
   id="g47">
	<rect
   width="42"
   height="42"
   x="124.198"
   y="193.218"
   style="fill:none"
   id="rect49" />
	<path
   d="M 148.102,227.297 L 148.102,218.801 L 133.606,218.801 L 133.606,216.065 L 147.526,196.097 L 152.086,196.097 L 152.086,215.537 L 156.454,215.537 L 156.454,218.801 L 152.086,218.801 L 152.086,227.297 L 148.102,227.297 L 148.102,227.297 z M 148.102,215.537 L 148.102,205.073 C 148.102,203.441 148.15,201.809 148.246,200.177 L 148.102,200.177 C 147.142,202.001 146.374,203.345 145.51,204.833 L 137.878,215.441 L 137.878,215.537 L 148.102,215.537 L 148.102,215.537 z "
   id="path51" />
</g>
<g
   id="g53">
	<rect
   width="42"
   height="42"
   x="269.19699"
   y="193.218"
   style="fill:none"
   id="rect55" />
	<path
   d="M 281.053,222.497 C 282.252,223.217 284.989,224.417 287.964,224.417 C 293.341,224.417 295.068,221.009 295.021,218.369 C 294.973,214.001 291.037,212.129 286.957,212.129 L 284.605,212.129 L 284.605,208.961 L 286.957,208.961 C 290.029,208.961 293.917,207.377 293.917,203.681 C 293.917,201.185 292.333,198.977 288.445,198.977 C 285.949,198.977 283.549,200.081 282.205,201.041 L 281.054,197.969 C 282.734,196.769 285.902,195.569 289.262,195.569 C 295.406,195.569 298.19,199.217 298.19,203.009 C 298.19,206.273 296.222,209.009 292.43,210.401 L 292.43,210.497 C 296.27,211.217 299.39,214.097 299.39,218.465 C 299.39,223.457 295.453,227.825 288.014,227.825 C 284.51,227.825 281.438,226.721 279.902,225.713 L 281.053,222.497 z "
   id="path57" />
</g>
</svg>