<?xml version="1.0" encoding="UTF-8"?><svg id="Layer_2" xmlns="http://www.w3.org/2000/svg" viewBox="0 0 93.5 34.13"><defs><style>.cls-1{fill:#fff;}.cls-2{stroke-width:2px;}.cls-2,.cls-3,.cls-4{stroke:#000;stroke-miterlimit:10;}.cls-2,.cls-4{fill:#4d4d4d;}.cls-3{fill:#e6e6e6;}.cls-5{fill:#fbb03b;}</style></defs><g id="Layer_1-2"><path class="cls-2" d="M4.4,9.13H81.25c6.21,0,11.25,5.04,11.25,11.25v1.51c0,6.21-5.04,11.25-11.25,11.25H4.4c-1.88,0-3.4-1.53-3.4-3.4V12.53c0-1.88,1.53-3.4,3.4-3.4Z"/><rect class="cls-3" x="6.5" y="14.63" width="44" height="13" rx="2.14" ry="2.14"/><path class="cls-3" d="M54.7,14.63h25.5c3.48,0,6.3,2.82,6.3,6.3v.4c0,3.48-2.82,6.3-6.3,6.3h-25.5c-1.22,0-2.2-.99-2.2-2.2v-8.6c0-1.22,.99-2.2,2.2-2.2Z"/><circle class="cls-4" cx="12.5" cy="21.13" r="4"/><circle class="cls-4" cx="23.5" cy="21.13" r="4"/><circle class="cls-4" cx="33.5" cy="21.13" r="4"/><circle class="cls-4" cx="44.5" cy="21.13" r="4"/><circle class="cls-4" cx="58.5" cy="21.13" r="4"/><circle class="cls-4" cx="69.5" cy="21.13" r="4"/><circle class="cls-4" cx="80.5" cy="21.13" r="4"/><circle class="cls-5" cx="12.5" cy="21.13" r="1.5"/><circle class="cls-5" cx="23.5" cy="21.13" r="1.5"/><circle class="cls-5" cx="33.5" cy="21.13" r="1.5"/><circle class="cls-5" cx="44.5" cy="21.13" r="1.5"/><circle class="cls-5" cx="58.5" cy="21.13" r="1.5"/><circle class="cls-5" cx="69.5" cy="21.13" r="1.5"/><circle class="cls-5" cx="80.5" cy="21.13" r="1.5"/><g><path d="M11.98,7.08V2.22c-.33,.11-.8,.21-1.11,.23h-.14V1.15l.1-.02c.62-.11,1.26-.45,1.63-.85l.04-.04h1.24V7.08h-1.77Z"/><path class="cls-1" d="M13.63,.37V6.95h-1.52V2.03c-.31,.14-.9,.26-1.24,.29V1.25c.66-.12,1.31-.47,1.7-.89h1.06m.25-.25h-1.42l-.07,.08c-.36,.39-.97,.7-1.56,.81l-.21,.04v1.55l.27-.02c.26-.02,.65-.09,.97-.19V7.2h2.02V.12h0Z"/></g><g><path d="M20.92,7.13v-.12c0-1.33,.62-2.3,2.08-3.31,.96-.67,1.21-.87,1.21-1.39s-.25-.76-.74-.76c-.53,0-.79,.25-.89,.87l-.02,.1h-1.68v-.14c.1-1.06,.82-2.19,2.59-2.19s2.49,1.09,2.49,2.11-.46,1.5-1.76,2.37c-.6,.4-.98,.74-1.17,1.02h3.2l-.23,1.44h-5.08Z"/><path class="cls-1" d="M23.47,.31c1.76,0,2.37,1.01,2.37,1.99s-.44,1.42-1.7,2.27c-.85,.57-1.19,.95-1.3,1.25h3.26l-.19,1.19h-4.85v-.09c0-1.15,.53-2.08,2.02-3.12,.97-.68,1.26-.91,1.26-1.49s-.29-.89-.87-.89c-.68,0-.92,.4-1.01,.97h-1.44c.09-1.13,.87-2.08,2.45-2.08m0-.25c-1.85,0-2.61,1.19-2.7,2.31l-.02,.27h1.92l.03-.21c.09-.55,.3-.76,.77-.76,.43,0,.62,.2,.62,.64s-.19,.61-1.16,1.28c-1.49,1.04-2.13,2.03-2.13,3.32v.34h5.32l.03-.21,.19-1.19,.05-.29h-3.09c.2-.22,.53-.49,.98-.79,1.28-.86,1.81-1.39,1.81-2.48S25.4,.06,23.47,.06h0Z"/></g><g><path d="M33.43,7.19c-1.85,0-2.59-1.06-2.66-2.04v-.13h1.68l.02,.1c.07,.33,.3,.73,1,.73,.58,0,.91-.32,.91-.87,0-.58-.32-.85-1-.85h-.75v-1.35h.68c.7,0,.83-.24,.83-.64s-.26-.63-.75-.63c-.6,0-.75,.29-.82,.6l-.02,.1h-1.66l.02-.14c.05-.45,.39-1.92,2.53-1.92,1.79,0,2.42,1.03,2.42,1.91,0,.73-.39,1.13-.72,1.34,.4,.19,.98,.64,.98,1.61,0,1.07-.71,2.2-2.69,2.2Z"/><path class="cls-1" d="M33.44,.25c1.59,0,2.3,.86,2.3,1.79,0,.79-.48,1.17-.86,1.34v.03c.45,.15,1.12,.56,1.12,1.58,0,.95-.59,2.08-2.57,2.08-1.85,0-2.47-1.06-2.54-1.93h1.45c.09,.45,.42,.83,1.13,.83s1.03-.42,1.03-1c0-.61-.33-.98-1.13-.98h-.63v-1.1h.55c.68,0,.96-.22,.96-.77,0-.45-.28-.76-.88-.76-.7,0-.87,.38-.94,.7h-1.42c.09-.81,.69-1.81,2.41-1.81m0-.25c-1.79,0-2.55,1.05-2.66,2.03l-.03,.28h1.9l.04-.19c.06-.26,.16-.5,.7-.5,.63,0,.63,.38,.63,.51,0,.3-.05,.52-.71,.52h-.8v1.6h.88c.77,0,.88,.37,.88,.73,0,.48-.28,.75-.78,.75s-.8-.21-.88-.63l-.04-.2h-1.92l.02,.27c.08,1.04,.85,2.16,2.79,2.16,2.08,0,2.82-1.2,2.82-2.33,0-.9-.46-1.38-.87-1.62,.31-.25,.61-.66,.61-1.33,0-.94-.67-2.04-2.55-2.04h0Z"/></g><g><path d="M44.88,7.07v-1.48h-3.1v-1.37L44.7,.25h1.82v3.94h.85l-.18,1.41h-.67v1.48h-1.64Zm0-2.89v-1.04c0-.42,0-.74,0-1.01-.35,.56-.91,1.34-1.42,2.05h1.41Z"/><path class="cls-1" d="M46.39,.37v3.94h.83l-.15,1.16h-.69v1.48h-1.39v-1.48h-3.1v-1.25l2.86-3.85h1.63m-1.36,1.25c-.27,.55-1.17,1.8-1.82,2.69h1.78v-1.17c0-.71,0-1.11,.03-1.52m1.61-1.5h-2l-.07,.1-2.86,3.85-.05,.07v1.58h3.1v1.48h1.89v-1.48h.66l.03-.22,.15-1.16,.04-.28h-.87V.12h0Zm-2.93,3.94c.38-.52,.75-1.05,1.05-1.49,0,.17,0,.36,0,.58v.92h-1.04Z"/></g><g><path d="M58.48,7.13c-1.46,0-2.47-.75-2.63-1.95l-.02-.14h1.73l.03,.09c.13,.44,.43,.65,.92,.65,.81,0,.93-.69,.93-1.09,0-.72-.3-1.05-.93-1.05-.58,0-.8,.23-.94,.58l-.04,.09-1.58-.2,.03-.13c.19-.83,.48-2.81,.59-3.68v-.11h4.45l-.25,1.42h-2.75c-.04,.26-.09,.6-.14,.87,.29-.15,.65-.22,1.07-.22,1.36,0,2.24,.91,2.24,2.31,0,1.24-.71,2.56-2.71,2.56Z"/><path class="cls-1" d="M60.88,.31l-.21,1.17h-2.76c-.04,.35-.16,.98-.21,1.25,.26-.2,.65-.35,1.24-.35,1.36,0,2.12,.94,2.12,2.19s-.73,2.44-2.59,2.44c-1.36,0-2.35-.67-2.5-1.84h1.49c.14,.45,.46,.74,1.04,.74,.71,0,1.05-.5,1.05-1.22s-.26-1.18-1.05-1.18c-.64,0-.9,.27-1.05,.66l-1.35-.17c.19-.83,.48-2.79,.59-3.69h4.17m.3-.25h-4.69l-.03,.22c-.11,.87-.4,2.83-.59,3.66l-.06,.27,.27,.03,1.35,.17,.19,.02,.07-.18c.12-.31,.31-.5,.82-.5,.56,0,.8,.28,.8,.93,0,.44-.14,.97-.8,.97-.43,0-.69-.18-.8-.56l-.05-.18h-1.96l.04,.28c.17,1.27,1.23,2.06,2.75,2.06,2.09,0,2.84-1.39,2.84-2.69,0-1.46-.95-2.44-2.37-2.44-.34,0-.64,.05-.9,.14,.03-.18,.06-.37,.09-.54h2.75l.04-.21,.21-1.17,.05-.29h0Z"/></g><g><path d="M69.59,7.19c-1.82,0-2.79-1.19-2.79-3.45,0-1.09,.28-3.61,2.87-3.61,1.53,0,2.3,.92,2.38,1.83v.14h-1.67l-.02-.09c-.07-.26-.21-.54-.76-.54-.61,0-.95,.41-1.05,1.27,.29-.22,.74-.42,1.41-.42,1.34,0,2.27,.95,2.27,2.3,0,1.54-1.06,2.57-2.64,2.57Zm-.04-3.52c-.62,0-.93,.34-.93,1.01,0,.11,.03,1.11,.93,1.11,.85,0,.94-.74,.94-1.06,0-.72-.31-1.06-.94-1.06Z"/><path class="cls-1" d="M69.68,.25c1.49,0,2.18,.9,2.25,1.72h-1.45c-.08-.32-.27-.63-.88-.63-.92,0-1.16,.82-1.2,1.71,.29-.34,.78-.61,1.56-.61,1.26,0,2.15,.89,2.15,2.18,0,1.41-.94,2.45-2.51,2.45-1.99,0-2.66-1.47-2.66-3.33,0-1.71,.64-3.49,2.75-3.49m-.12,5.68c.73,0,1.06-.52,1.06-1.19,0-.63-.24-1.19-1.06-1.19-.67,0-1.05,.38-1.05,1.14,0,.53,.26,1.24,1.05,1.24m.12-5.93c-1.9,0-3,1.36-3,3.74s1.01,3.58,2.91,3.58c1.65,0,2.76-1.08,2.76-2.7,0-1.28-.8-2.22-1.98-2.4h1.83l-.02-.27c-.09-.97-.89-1.95-2.5-1.95h0Zm-.96,2.48c.16-.77,.54-.89,.88-.89,.43,0,.56,.17,.64,.44l.05,.18c-.11-.01-.21-.02-.33-.02-.54,0-.94,.12-1.24,.29h0Zm.83,3.2c-.78,0-.8-.89-.8-.99,0-.61,.26-.89,.8-.89,.35,0,.81,.1,.81,.94,0,.35-.11,.94-.81,.94h0Z"/></g><g><path d="M78.77,7.07l.02-.14c.25-1.81,1.34-4,2.3-5.25h-3.1V.25h5.01V1.43c-1,1.4-2.14,3.53-2.42,5.53l-.02,.11h-1.79Z"/><path class="cls-1" d="M82.87,.37V1.43c-1.09,1.48-2.15,3.61-2.42,5.52h-1.53c.27-1.94,1.5-4.26,2.43-5.4h-3.24V.37h4.76m.25-.25h-5.26V1.8h2.98c-.93,1.3-1.93,3.37-2.17,5.11l-.04,.28h2.04l.03-.21c.28-1.98,1.41-4.09,2.38-5.4l.05-.07V.12h0Z"/></g></g></svg>