<?xml version="1.0" encoding="UTF-8" standalone="no"?>
<!-- Created with Inkscape (http://www.inkscape.org/) -->
<svg
   xmlns:svg="http://www.w3.org/2000/svg"
   xmlns="http://www.w3.org/2000/svg"
   version="1.0"
   width="454.99899"
   height="455"
   viewBox="-9.302 -9.782 454.999 455"
   id="Layer_1"
   xml:space="preserve"><defs
   id="defs3586" />
<path
   d="M 19.082,217.723 C 19.079,327.416 108.003,416.339 217.696,416.338 C 327.385,416.338 416.313,327.417 416.313,217.723 C 416.311,108.03 327.385,19.098 217.695,19.098 C 108.002,19.099 19.081,108.03 19.082,217.723 z "
   style="fill:#ffffff;stroke:#000000;stroke-width:6.91480017"
   id="path3545" />
<path
   d="M 344.021,91.413 C 318.214,65.607 286.474,49.358 253.196,42.644 L 253.196,74.218 L 252.196,74.218 L 183.197,74.218 L 182.196,74.218 L 182.196,42.647 C 148.916,49.364 117.179,65.615 91.376,91.421 C 32.346,150.449 23.282,240.5 64.145,309.077 L 126.33,309.077 L 126.33,371.282 C 182.446,404.728 252.939,404.729 309.056,371.284 L 309.056,309.081 L 371.243,309.081 C 412.111,240.499 403.053,150.442 344.021,91.413 z "
   style="fill:none;stroke:#000000;stroke-width:6.91480017"
   id="path3547" />
<rect
   width="100.161"
   height="56.34"
   x="167.617"
   y="311.43701"
   style="fill:none;stroke:#000000;stroke-width:6.2493"
   id="rect3549" />
<g
   id="g3551">
	<circle
   cx="126.152"
   cy="141.746"
   r="19.554001"
   style="fill:none;stroke:#000000;stroke-width:6.91480017"
   id="circle3553" />
	<circle
   cx="103.008"
   cy="233.33099"
   r="19.554001"
   style="fill:none;stroke:#000000;stroke-width:6.91480017"
   id="circle3555" />
	<circle
   cx="332.38599"
   cy="233.33099"
   r="19.554001"
   style="fill:none;stroke:#000000;stroke-width:6.91480017"
   id="circle3557" />
	<circle
   cx="309.23901"
   cy="141.745"
   r="19.554001"
   style="fill:none;stroke:#000000;stroke-width:6.91480017"
   id="circle3559" />
	<g
   id="g3561">
		<rect
   width="40"
   height="43.999001"
   x="268.25299"
   y="214.217"
   style="fill:none"
   id="rect3563" />
		<path
   d="M 287.207,221.457 L 287.207,250.424 L 291.542,250.424 L 291.542,217.276 L 287.718,217.276 L 280.476,221.151 L 281.343,224.568 L 287.106,221.459 L 287.207,221.457 L 287.207,221.457 z "
   id="path3565" />
	</g>
	<g
   id="g3567">
		<rect
   width="40"
   height="43.999001"
   x="127.255"
   y="214.217"
   style="fill:none"
   id="rect3569" />
		<path
   d="M 136.468,250.425 L 157.634,250.425 L 157.634,246.7 L 142.793,246.7 L 142.793,246.597 L 145.394,244.149 C 152.381,237.419 156.819,232.47 156.819,226.35 C 156.819,221.608 153.809,216.713 146.72,216.713 C 142.895,216.713 139.58,218.192 137.336,220.076 L 138.764,223.238 C 140.294,221.964 142.793,220.433 145.802,220.433 C 150.749,220.433 152.33,223.544 152.33,226.911 C 152.33,231.908 148.454,236.192 139.987,244.252 L 136.467,247.669 L 136.468,250.425 L 136.468,250.425 z "
   id="path3571" />
	</g>
	<g
   id="g3573">
		<rect
   width="40"
   height="44"
   x="241.25301"
   y="121.217"
   style="fill:none"
   id="rect3575" />
		<path
   d="M 250.313,155.743 C 251.945,156.814 255.209,157.987 258.931,157.987 C 266.836,157.987 271.018,153.346 271.018,148.042 C 271.018,143.401 267.704,140.341 263.622,139.576 L 263.622,139.474 C 267.651,137.995 269.742,135.088 269.742,131.62 C 269.742,127.591 266.784,123.715 260.257,123.715 C 256.688,123.715 253.32,124.99 251.535,126.265 L 252.76,129.529 C 254.189,128.509 256.739,127.336 259.39,127.336 C 263.522,127.336 265.203,129.682 265.203,132.334 C 265.203,136.261 261.072,137.944 257.808,137.944 L 255.309,137.944 L 255.309,141.31 L 257.808,141.31 C 262.143,141.31 266.325,143.299 266.374,147.94 C 266.426,150.745 264.589,154.366 258.877,154.366 C 255.716,154.366 252.81,153.091 251.533,152.326 L 250.313,155.743 z "
   id="path3577" />
	</g>
	<g
   id="g3579">
		<rect
   width="40"
   height="44"
   x="154.255"
   y="121.217"
   style="fill:none"
   id="rect3581" />
		<path
   d="M 177.34,157.426 L 181.574,157.426 L 181.574,148.399 L 186.215,148.399 L 186.215,144.931 L 181.574,144.931 L 181.574,124.276 L 176.729,124.276 L 161.939,145.492 L 161.939,148.399 L 177.339,148.399 L 177.34,157.426 L 177.34,157.426 z M 177.34,144.931 L 166.478,144.931 L 166.478,144.829 L 174.586,133.558 C 175.504,131.977 176.32,130.549 177.34,128.611 L 177.493,128.611 C 177.391,130.345 177.34,132.079 177.34,133.813 L 177.34,144.931 L 177.34,144.931 z "
   id="path3583" />
	</g>
</g>
</svg>